<?xml version="1.0" encoding="UTF-8"?>
<!DOCTYPE svg PUBLIC "-//W3C//DTD SVG 1.1//EN" "http://www.w3.org/Graphics/SVG/1.1/DTD/svg11.dtd">
<svg version="1.1" xmlns="http://www.w3.org/2000/svg" xmlns:xlink="http://www.w3.org/1999/xlink" x="0" y="0" width="256" height="256" viewBox="0, 0, 256, 256">
  <g id="Layer_1">
    <path d="M241.173,156.62 C244.396,160.808 237.601,178.04 234.557,185.754 C233.628,188.093 235.61,189.013 237.682,187.254 C251.19,175.79 254.69,151.763 251.914,148.299 C249.173,144.852 225.566,141.897 211.173,152.156 C208.95,153.736 209.334,155.915 211.789,155.629 C219.896,154.629 237.958,152.442 241.173,156.62 L241.173,156.62 z M233.655,174.557 C238.28,171.182 234.316,166.156 229.601,168.129 C198.236,181.2 164.183,187.531 133.174,187.531 C87.255,187.531 42.756,175.129 6.783,154.54 C3.64,152.736 1.31,155.924 3.935,158.236 C37.265,187.843 81.335,205.637 130.245,205.637 C165.156,205.637 205.7,194.852 233.655,174.557 L233.655,174.557 z M214.512,127.996 C210.066,127.996 205.718,127.522 201.486,126.558 C197.236,125.585 193.986,124.487 191.727,123.228 C190.343,122.478 189.477,121.692 189.129,120.924 C188.789,120.138 188.611,119.371 188.611,118.603 L188.611,114.415 C188.611,112.683 189.263,111.799 190.539,111.799 C191.03,111.799 191.548,111.915 192.084,112.094 C192.629,112.299 193.343,112.585 194.236,112.969 C197.093,114.228 200.191,115.183 203.557,115.862 C206.914,116.531 210.262,116.871 213.611,116.871 C218.941,116.871 223.057,115.96 225.968,114.121 C228.887,112.299 230.334,109.701 230.334,106.326 C230.334,104.005 229.575,102.085 228.039,100.532 C226.512,98.978 223.673,97.558 219.539,96.201 L207.262,92.442 C201.039,90.514 196.53,87.719 193.718,84.068 C190.905,80.389 189.504,76.398 189.504,72.041 C189.504,68.586 190.263,65.532 191.807,62.871 C193.325,60.22 195.334,57.961 197.843,56.077 C200.387,54.202 203.325,52.791 206.673,51.809 C210.012,50.854 213.566,50.363 217.316,50.363 C219.191,50.363 221.093,50.488 223.03,50.729 C224.95,50.961 226.771,51.282 228.494,51.666 C230.217,52.068 231.825,52.496 233.298,52.97 C234.78,53.461 235.958,53.943 236.86,54.416 C238.03,55.086 238.86,55.764 239.369,56.443 C239.86,57.113 240.11,58.023 240.11,59.193 L240.11,63.086 C240.11,64.827 239.467,65.684 238.173,65.684 C237.485,65.684 236.414,65.362 234.923,64.684 C230.101,62.55 224.655,61.505 218.664,61.505 C213.825,61.505 210.066,62.273 207.405,63.809 C204.736,65.362 203.405,67.818 203.405,71.193 C203.405,73.496 204.245,75.452 205.932,77.041 C207.611,78.63 210.709,80.148 215.253,81.603 L227.235,85.371 C233.351,87.282 237.717,89.942 240.324,93.3 C242.949,96.683 244.262,100.532 244.262,104.862 C244.262,108.442 243.521,111.648 242.03,114.487 C240.548,117.335 238.503,119.755 235.878,121.781 C233.271,123.808 230.146,125.344 226.494,126.406 C222.834,127.478 218.843,127.996 214.512,127.996 L214.512,127.996 z M105.898,125.817 C104.415,125.817 103.335,125.576 102.639,125.04 C101.942,124.496 101.353,123.424 100.862,121.781 L81.023,57.88 C80.55,56.238 80.291,55.139 80.291,54.568 C80.291,53.22 80.987,52.541 82.371,52.541 L90.648,52.541 C92.228,52.541 93.335,52.809 93.987,53.345 C94.621,53.863 95.183,54.934 95.675,56.595 L109.88,111.237 L123.067,56.595 C123.46,54.934 123.996,53.863 124.683,53.345 C125.371,52.809 126.504,52.541 128.076,52.541 L134.906,52.541 C136.469,52.541 137.603,52.809 138.299,53.345 C138.986,53.863 139.531,54.934 139.924,56.595 L153.254,111.96 L167.897,56.595 C168.388,54.934 168.95,53.863 169.593,53.345 C170.245,52.809 171.343,52.541 172.924,52.541 L180.763,52.541 C182.156,52.541 182.843,53.22 182.843,54.568 C182.843,54.934 182.781,55.38 182.7,55.854 C182.584,56.354 182.406,57.023 182.093,57.88 L161.683,121.781 C161.192,123.424 160.593,124.496 159.897,125.04 C159.209,125.576 158.12,125.817 156.647,125.817 L149.388,125.817 C147.817,125.817 146.683,125.549 145.995,124.978 C145.308,124.397 144.763,123.272 144.37,121.647 L131.192,68.434 L118.183,121.647 C117.79,123.272 117.237,124.397 116.549,124.978 C115.853,125.549 114.728,125.817 113.148,125.817 L105.898,125.817 z M37.97,116.871 C40.747,116.871 43.648,116.362 46.711,115.353 C49.764,114.335 52.425,112.585 54.693,110.067 C56.086,108.532 57.032,106.773 57.586,104.79 C58.121,102.826 58.38,100.442 58.38,97.639 L58.38,94.175 C55.934,93.594 53.345,93.139 50.622,92.8 C47.907,92.469 45.273,92.291 42.702,92.291 C37.086,92.291 32.881,93.398 30.131,95.621 C27.372,97.835 25.979,101.005 25.979,105.174 C25.979,109.023 27.024,111.924 29.095,113.906 C31.166,115.889 34.131,116.871 37.97,116.871 L37.97,116.871 z M72.309,104.299 C72.309,107.38 72.621,109.826 73.264,111.665 C73.916,113.505 74.827,115.487 76.005,117.594 C76.398,118.272 76.594,118.897 76.594,119.46 C76.594,120.344 76.05,121.165 74.969,121.924 L69.639,125.406 C68.853,125.879 68.112,126.129 67.425,126.129 C66.523,126.129 65.693,125.746 64.907,124.978 C63.711,123.808 62.711,122.54 61.88,121.138 C61.023,119.746 60.166,118.112 59.282,116.281 C52.666,123.897 44.389,127.71 34.425,127.71 C27.318,127.71 21.693,125.746 17.542,121.781 C13.408,117.835 11.336,112.531 11.336,105.889 C11.336,98.862 13.899,93.183 19.042,88.898 C24.158,84.612 31.077,82.46 39.747,82.46 C42.613,82.46 45.595,82.684 48.702,83.112 C51.8,83.541 55.041,84.157 58.38,84.925 L58.38,78.862 C58.38,72.594 57.068,68.184 54.398,65.621 C51.738,63.068 47.157,61.8 40.648,61.8 C37.675,61.8 34.64,62.148 31.532,62.871 C28.434,63.595 25.39,64.532 22.434,65.684 C21.05,66.264 20.059,66.63 19.479,66.773 C18.89,66.916 18.443,66.987 18.149,66.987 C16.97,66.987 16.363,66.13 16.363,64.38 L16.363,60.345 C16.363,58.987 16.577,58.023 16.97,57.461 C17.363,56.871 18.149,56.291 19.336,55.72 C22.292,54.264 25.845,53.014 29.979,51.961 C34.131,50.898 38.515,50.363 43.157,50.363 C53.211,50.363 60.586,52.621 65.273,57.086 C69.952,61.568 72.309,68.336 72.309,77.398 L72.309,104.299 z" fill="#FFFFFF" id="Fill-1"/>
  </g>
</svg>
