<?xml version="1.0" encoding="UTF-8"?>
<!DOCTYPE svg PUBLIC "-//W3C//DTD SVG 1.1//EN" "http://www.w3.org/Graphics/SVG/1.1/DTD/svg11.dtd">
<svg version="1.1" xmlns="http://www.w3.org/2000/svg" xmlns:xlink="http://www.w3.org/1999/xlink" x="0" y="0" width="256" height="256" viewBox="0, 0, 256, 256">
  <g id="Layer_1">
    <g>
      <path d="M73.452,107.546 C73.452,110.622 73.785,113.117 74.367,114.946 C75.032,116.775 75.864,118.771 77.028,120.932 C77.444,121.598 77.61,122.263 77.61,122.845 C77.61,123.676 77.111,124.508 76.03,125.339 L70.792,128.831 C70.043,129.33 69.295,129.58 68.63,129.58 C67.798,129.58 66.967,129.164 66.135,128.416 C64.971,127.169 63.974,125.838 63.142,124.508 C62.311,123.094 61.479,121.515 60.565,119.602 C54.079,127.252 45.931,131.076 36.119,131.076 C29.135,131.076 23.564,129.081 19.49,125.09 C15.416,121.099 13.337,115.777 13.337,109.126 C13.337,102.058 15.831,96.321 20.903,91.997 C25.975,87.674 32.71,85.512 41.274,85.512 C44.101,85.512 47.012,85.761 50.088,86.177 C53.164,86.593 56.324,87.258 59.65,88.006 L59.65,81.936 C59.65,75.617 58.32,71.21 55.742,68.633 C53.081,66.055 48.591,64.808 42.189,64.808 C39.279,64.808 36.286,65.141 33.209,65.889 C30.133,66.637 27.139,67.552 24.229,68.716 C22.899,69.298 21.901,69.631 21.319,69.797 C20.737,69.963 20.321,70.046 19.989,70.046 C18.825,70.046 18.243,69.215 18.243,67.469 L18.243,63.394 C18.243,62.064 18.409,61.066 18.825,60.484 C19.24,59.902 19.989,59.32 21.153,58.738 C24.063,57.242 27.555,55.994 31.629,54.997 C35.704,53.916 40.027,53.417 44.6,53.417 C54.495,53.417 61.729,55.662 66.385,60.152 C70.958,64.642 73.286,71.46 73.286,80.606 L73.286,107.546 z M39.695,120.184 C42.438,120.184 45.265,119.685 48.259,118.688 C51.252,117.69 53.913,115.86 56.158,113.366 C57.488,111.786 58.486,110.04 58.985,108.045 C59.484,106.049 59.816,103.638 59.816,100.811 L59.816,97.319 C57.405,96.737 54.827,96.238 52.167,95.905 C49.506,95.573 46.928,95.406 44.351,95.406 C38.78,95.406 34.706,96.487 31.962,98.732 C29.218,100.977 27.888,104.137 27.888,108.294 C27.888,112.202 28.885,115.112 30.964,117.108 C32.96,119.186 35.87,120.184 39.695,120.184 z M106.462,129.164 C104.965,129.164 103.968,128.915 103.302,128.333 C102.637,127.834 102.055,126.67 101.556,125.09 L82.017,60.817 C81.518,59.154 81.268,58.073 81.268,57.491 C81.268,56.161 81.933,55.412 83.264,55.412 L91.412,55.412 C92.992,55.412 94.073,55.662 94.655,56.244 C95.32,56.743 95.819,57.907 96.318,59.487 L110.287,114.53 L123.258,59.487 C123.673,57.824 124.172,56.743 124.838,56.244 C125.503,55.745 126.667,55.412 128.163,55.412 L134.815,55.412 C136.395,55.412 137.476,55.662 138.141,56.244 C138.806,56.743 139.388,57.907 139.721,59.487 L152.858,115.195 L167.243,59.487 C167.742,57.824 168.324,56.743 168.906,56.244 C169.571,55.745 170.652,55.412 172.148,55.412 L179.881,55.412 C181.211,55.412 181.96,56.078 181.96,57.491 C181.96,57.907 181.877,58.323 181.793,58.821 C181.71,59.32 181.544,59.985 181.211,60.9 L161.173,125.173 C160.674,126.836 160.092,127.917 159.427,128.416 C158.762,128.915 157.681,129.247 156.267,129.247 L149.117,129.247 C147.537,129.247 146.456,128.998 145.791,128.416 C145.125,127.834 144.543,126.753 144.211,125.09 L131.323,71.46 L118.518,125.007 C118.103,126.67 117.604,127.751 116.939,128.333 C116.273,128.915 115.109,129.164 113.613,129.164 L106.462,129.164 z M213.306,131.409 C208.983,131.409 204.659,130.91 200.502,129.912 C196.344,128.915 193.102,127.834 190.94,126.587 C189.609,125.838 188.695,125.007 188.362,124.258 C188.03,123.51 187.863,122.679 187.863,121.93 L187.863,117.69 C187.863,115.944 188.528,115.112 189.776,115.112 C190.275,115.112 190.773,115.195 191.272,115.362 C191.771,115.528 192.519,115.86 193.351,116.193 C196.178,117.44 199.254,118.438 202.497,119.103 C205.823,119.768 209.066,120.101 212.392,120.101 C217.63,120.101 221.704,119.186 224.531,117.357 C227.358,115.528 228.855,112.867 228.855,109.458 C228.855,107.13 228.107,105.218 226.61,103.638 C225.113,102.058 222.286,100.645 218.212,99.314 L206.156,95.573 C200.086,93.66 195.596,90.833 192.852,87.091 C190.108,83.433 188.695,79.359 188.695,75.035 C188.695,71.543 189.443,68.466 190.94,65.806 C192.436,63.145 194.432,60.817 196.926,58.988 C199.421,57.075 202.248,55.662 205.574,54.664 C208.9,53.666 212.392,53.251 216.05,53.251 C217.879,53.251 219.792,53.334 221.621,53.583 C223.533,53.833 225.28,54.165 227.026,54.498 C228.689,54.913 230.268,55.329 231.765,55.828 C233.262,56.327 234.426,56.826 235.257,57.325 C236.421,57.99 237.253,58.655 237.752,59.403 C238.251,60.069 238.5,60.983 238.5,62.147 L238.5,66.055 C238.5,67.801 237.835,68.716 236.588,68.716 C235.922,68.716 234.841,68.383 233.428,67.718 C228.689,65.556 223.367,64.475 217.464,64.475 C212.724,64.475 208.983,65.224 206.405,66.804 C203.828,68.383 202.497,70.795 202.497,74.204 C202.497,76.532 203.329,78.527 204.992,80.107 C206.655,81.687 209.731,83.267 214.138,84.68 L225.945,88.422 C231.931,90.334 236.255,92.995 238.833,96.404 C241.41,99.813 242.657,103.721 242.657,108.045 C242.657,111.62 241.909,114.863 240.496,117.69 C238.999,120.517 237.003,123.011 234.426,125.007 C231.848,127.085 228.772,128.582 225.196,129.663 C221.455,130.827 217.547,131.409 213.306,131.409 z" fill="#252F3E"/>
      <g>
        <path d="M229.021,171.819 C201.666,192.023 161.921,202.749 127.748,202.749 C79.855,202.749 36.701,185.039 4.108,155.605 C1.53,153.277 3.858,150.117 6.935,151.946 C42.189,172.401 85.675,184.79 130.658,184.79 C161.007,184.79 194.349,178.47 225.03,165.499 C229.603,163.421 233.511,168.493 229.021,171.819 z" fill="#FF9900"/>
        <path d="M240.412,158.848 C236.92,154.358 217.297,156.686 208.401,157.767 C205.74,158.099 205.324,155.771 207.735,154.025 C223.367,143.05 249.06,146.209 252.053,149.868 C255.046,153.609 251.222,179.302 236.588,191.608 C234.343,193.52 232.181,192.522 233.179,190.028 C236.504,181.796 243.905,163.254 240.412,158.848 z" fill="#FF9900"/>
      </g>
    </g>
  </g>
</svg>
