<?xml version="1.0" encoding="UTF-8"?>
<!DOCTYPE svg PUBLIC "-//W3C//DTD SVG 1.1//EN" "http://www.w3.org/Graphics/SVG/1.1/DTD/svg11.dtd">
<svg version="1.1" xmlns="http://www.w3.org/2000/svg" xmlns:xlink="http://www.w3.org/1999/xlink" x="0" y="0" width="256" height="256" viewBox="0, 0, 256, 256">
  <g id="Layer_1">
    <path d="M249.061,110.47 C242.931,106.361 226.827,104.608 215.121,107.749 C214.492,96.141 208.473,86.357 197.474,77.821 L193.403,75.101 L190.688,79.183 C185.355,87.241 183.105,97.983 183.901,107.749 C184.53,113.766 186.63,120.526 190.688,125.433 C175.452,134.233 161.403,132.235 99.195,132.235 L3.15,132.235 C2.871,146.219 5.128,173.114 22.309,195.009 C24.209,197.428 26.288,199.767 28.548,202.021 C42.519,215.946 63.626,226.158 95.188,226.185 C143.34,226.23 184.592,200.319 209.689,137.679 C217.945,137.811 239.746,139.152 250.415,118.632 C250.675,118.287 253.129,113.193 253.129,113.193 L249.061,110.474 L249.061,110.47 z M65.831,97.683 L38.822,97.683 L38.822,124.567 L65.831,124.567 L65.831,97.683 z M100.718,97.683 L73.711,97.683 L73.711,124.567 L100.718,124.567 L100.718,97.683 z M135.61,97.683 L108.603,97.683 L108.603,124.567 L135.61,124.567 L135.61,97.683 z M170.504,97.683 L143.495,97.683 L143.495,124.567 L170.504,124.567 L170.504,97.683 z M30.937,97.683 L3.93,97.683 L3.93,124.567 L30.937,124.567 L30.937,97.683 z M65.831,63.729 L38.822,63.729 L38.822,90.612 L65.831,90.612 L65.831,63.729 z M100.718,63.729 L73.711,63.729 L73.711,90.612 L100.718,90.612 L100.718,63.729 z M135.61,63.729 L108.603,63.729 L108.603,90.612 L135.61,90.612 L135.61,63.729 z M135.61,29.77 L108.603,29.77 L108.603,56.654 L135.61,56.654 L135.61,29.77 z" fill="#1D63ED"/>
  </g>
</svg>
