<?xml version="1.0" encoding="UTF-8"?>
<!DOCTYPE svg PUBLIC "-//W3C//DTD SVG 1.1//EN" "http://www.w3.org/Graphics/SVG/1.1/DTD/svg11.dtd">
<svg version="1.1" xmlns="http://www.w3.org/2000/svg" xmlns:xlink="http://www.w3.org/1999/xlink" x="0" y="0" width="256" height="256" viewBox="0, 0, 256, 256">
  <g id="Layer_1">
    <g>
      <path d="M50.16,142.168 C59.406,136.829 59.421,119.546 50.194,103.565 C40.967,87.583 25.991,78.956 16.745,84.294 C7.499,89.632 7.484,106.916 16.711,122.897 C25.938,138.878 40.914,147.506 50.16,142.168 z M50.215,176.388 C59.442,192.369 59.427,209.652 50.181,214.991 C40.934,220.329 25.959,211.701 16.732,195.72 C7.505,179.739 7.52,162.455 16.766,157.117 C26.012,151.779 40.988,160.407 50.215,176.388 z M113.224,212.817 C122.451,228.798 122.436,246.08 113.19,251.42 C103.944,256.758 88.968,248.13 79.741,232.148 C70.514,216.167 70.53,198.884 79.776,193.545 C89.022,188.207 103.997,196.835 113.224,212.817 z M113.204,139.994 C122.431,155.976 122.415,173.259 113.169,178.597 C103.923,183.936 88.948,175.308 79.721,159.326 C70.494,143.345 70.509,126.062 79.755,120.724 C89.001,115.385 103.977,124.013 113.204,139.994 z" fill="#F26E7E"/>
      <path d="M239.253,122.937 C248.479,106.956 248.465,89.673 239.218,84.334 C229.972,78.996 214.997,87.624 205.77,103.605 C196.543,119.587 196.558,136.869 205.804,142.208 C215.05,147.546 230.026,138.919 239.253,122.937 z M239.255,157.14 C248.5,162.478 248.517,179.761 239.289,195.743 C230.062,211.724 215.086,220.352 205.84,215.014 C196.594,209.675 196.579,192.392 205.806,176.411 C215.033,160.429 230.009,151.802 239.255,157.14 z M176.258,193.509 C185.504,198.847 185.52,216.13 176.292,232.112 C167.065,248.092 152.09,256.72 142.844,251.383 C133.598,246.045 133.582,228.761 142.809,212.78 C152.036,196.798 167.012,188.17 176.258,193.509 z M176.223,120.703 C185.469,126.041 185.484,143.324 176.257,159.305 C167.03,175.287 152.054,183.915 142.808,178.576 C133.562,173.238 133.547,155.955 142.774,139.974 C152.001,123.992 166.976,115.364 176.223,120.703 z" fill="#8A3391"/>
      <path d="M161.385,22.332 C161.385,33.009 146.425,41.664 127.971,41.664 C109.517,41.664 94.556,33.009 94.556,22.332 C94.556,11.655 109.517,3 127.971,3 C146.425,3 161.385,11.655 161.385,22.332 z M98.389,58.664 C98.389,69.34 83.429,77.996 64.975,77.996 C46.52,77.996 31.56,69.34 31.56,58.664 C31.56,47.987 46.52,39.332 64.975,39.332 C83.429,39.332 98.389,47.987 98.389,58.664 z M191.049,77.996 C209.504,77.996 224.464,69.34 224.464,58.664 C224.464,47.987 209.504,39.332 191.049,39.332 C172.595,39.332 157.635,47.987 157.635,58.664 C157.635,69.34 172.595,77.996 191.049,77.996 z M161.385,95.077 C161.385,105.753 146.425,114.408 127.971,114.408 C109.517,114.408 94.556,105.753 94.556,95.077 C94.556,84.4 109.517,75.745 127.971,75.745 C146.425,75.745 161.385,84.4 161.385,95.077 z" fill="#F7BF2A"/>
    </g>
  </g>
</svg>
